inDegrees=yes
name=ik_S48_A02_T02
DataType=double
version=3
OpenSimVersion=4.3-2021-08-27-4bc7ad9
endheader
time	pelvis_tilt	pelvis_list	pelvis_rotation	pelvis_tx	pelvis_ty	pelvis_tz	hip_flexion_r	hip_adduction_r	hip_rotation_r	knee_angle_r	knee_angle_r_beta	ankle_angle_r	subtalar_angle_r	mtp_angle_r	hip_flexion_l	hip_adduction_l	hip_rotation_l	knee_angle_l	knee_angle_l_beta	ankle_angle_l	subtalar_angle_l	mtp_angle_l	lumbar_extension	lumbar_bending	lumbar_rotation	arm_flex_r	arm_add_r	arm_rot_r	elbow_flex_r	pro_sup_r	wrist_flex_r	wrist_dev_r	arm_flex_l	arm_add_l	arm_rot_l	elbow_flex_l	pro_sup_l	wrist_flex_l	wrist_dev_l
15.77999999999975	-1.141522177256455	2.885306539111903	-87.09249951098668	0	0.9399999999999999	0	9.344056841272295	-2.842193830512532	-14.12897232105309	2.00761119410773	0.03503942543707487	0	0	0	-4.408568348893403	-0.6251794740707786	-1.785022817340687	-5.878537261197128	-0.1025998304090598	0	0	0	0	0	0	27.52564192071648	-27.52564192071648	4.04029421525127	71.74383868359946	85.95970601286247	0	0	27.52564192071648	-27.52564192071648	4.04029421525127	71.74383868359946	85.95970601268367	0	0
15.79999999999975	-1.217538181211649	2.576398542927691	-87.60450318534407	0	0.9399999999999999	0	8.555373845260892	-2.914557846783679	-14.41963417920899	4.458222830999632	0.07781066718852629	0	0	0	-4.407345820046793	-0.7640490885310753	-2.380405280709289	-6.133171214603484	-0.1070440312833705	0	0	0	0	0	0	27.53293477640369	-27.53293477640369	4.041086173764661	71.7549906678379	85.95891405439103	0	0	27.53293477640369	-27.53293477640369	4.041086173764661	71.7549906678379	85.95891405421239	0	0
15.81999999999975	-1.24542572036097	2.339905004333755	-88.0070252440054	0	0.9399999999999999	0	7.892915849069246	-3.131470363858844	-14.92695097067243	7.406142452542676	0.1292615706685976	0	0	0	-4.315052086541105	-0.837212170993902	-2.815553437395899	-6.001512402264224	-0.1047461515187851	0	0	0	0	0	0	27.54122252386368	-27.54122252386368	4.041986009602141	71.76766124978909	85.95801421860124	0	0	27.54122252386368	-27.54122252386368	4.041986009602141	71.76766124978909	85.95801421842275	0	0
15.83999999999975	-1.303902484685031	2.049557789760121	-88.26478348037277	0	0.9399999999999999	0	7.152936432468511	-3.28051177957379	-15.52487368264027	10.623800292815	0.1854202941839594	0	0	0	-4.228782776267701	-0.8903399439511954	-2.85320940931459	-6.064332703577606	-0.1058425726137985	0	0	0	0	0	0	27.55067390408356	-27.55067390408356	4.043012081850471	71.78210884561908	85.95698814640726	0	0	27.55067390408356	-27.55067390408356	4.043012081850471	71.78210884561908	85.95698814622899	0	0
15.85999999999975	-1.391907627946586	1.713231998289763	-88.39696077863674	0	0.9399999999999999	0	6.37469506461899	-3.330698553946716	-15.48623691590986	13.8386873379881	0.2415306582019417	0	0	0	-4.17314592658677	-0.9875264892049708	-2.733619233180269	-6.08808118844636	-0.1062570618671183	0	0	0	0	0	0	27.55761704149845	-27.55761704149845	4.043760950929508	71.79264894125224	85.95623927736796	0	0	27.55761704149845	-27.55761704149845	4.043760950929508	71.79264894125224	85.95623927718965	0	0
15.87999999999975	-1.498395597017696	1.341161761147126	-88.44805478215211	0	0.9399999999999999	0	5.080285785020793	-3.77366072337715	-14.79951982985225	16.793538417992	0.2931025384541202	0	0	0	-4.160352890913715	-1.144156439068752	-2.552376885118318	-6.1405155118191	-0.1071722134510281	0	0	0	0	0	0	27.56371236284359	-27.56371236284359	4.044419777632791	71.8019227516167	85.95558045069961	0	0	27.56371236284359	-27.56371236284359	4.044419777632791	71.8019227516167	85.95558045052131	0	0
15.89999999999975	-1.520312947443878	0.9663507153634324	-88.46591355832663	0	0.9399999999999999	0	3.290714217190827	-4.09611317161508	-15.1560048820773	19.30878579820715	0.3370018867410363	0	0	0	-4.12822062404938	-1.207714983132883	-2.3150003661671	-6.318390819298666	-0.1102767232245438	0	0	0	0	0	0	27.56925588172679	-27.56925588172679	4.045019597261555	71.81036632321577	85.95498063110263	0	0	27.56925588172679	-27.56925588172679	4.045019597261555	71.81036632321577	85.95498063092444	0	0
15.91999999999975	-1.424606825272055	0.678530621292333	-88.52136377205834	0	0.9399999999999999	0	1.531494552536754	-4.162564666092397	-15.25272265215335	21.4634756233611	0.3746083185491935	0	0	0	-4.016802414115656	-1.157409196166051	-2.115654870139028	-6.200682948334243	-0.108222333320702	0	0	0	0	0	0	27.57550714158577	-27.57550714158577	4.045696183034186	71.81989050897229	85.95430404536583	0	0	27.57550714158577	-27.57550714158577	4.045696183034186	71.81989050897229	85.95430404518778	0	0
15.93999999999975	-1.270106614584637	0.4166708272429988	-88.61401691562975	0	0.9399999999999999	0	-0.2543999219932565	-4.441332210103623	-15.35120108873389	23.28055317383636	0.4063223045690603	0	0	0	-3.876217451754653	-1.092618163410525	-2.092222865237575	-6.20087453192692	-0.108225677085187	0	0	0	0	0	0	27.5816364213454	-27.5816364213454	4.046359255736773	71.82922402193478	85.95364097269831	0	0	27.5816364213454	-27.5816364213454	4.046359255736773	71.82922402193478	85.9536409725204	0	0
15.95999999999975	-1.09405792700238	0.1588517123243691	-88.72405859902324	0	0.9399999999999999	0	-1.963221789126361	-4.726818970656287	-15.52682359949276	24.78913901714737	0.4326520945838128	0	0	0	-3.760811883254999	-1.04624298876667	-2.382987216680613	-6.195134514017338	-0.1081254948735414	0	0	0	0	0	0	27.58903125805334	-27.58903125805334	4.047159396820519	71.84048682016096	85.95284083165697	0	0	27.58903125805334	-27.58903125805334	4.047159396820519	71.84048682016096	85.95284083147907	0	0
15.97999999999975	-0.9527511701286194	-0.1389337314535151	-88.84505970881452	0	0.9399999999999999	0	-3.602854162599798	-4.934519745255369	-15.41613950659841	25.91146687259666	0.4522404109482497	0	0	0	-3.696441908097917	-1.052070607985894	-2.828224467077103	-6.140174094866059	-0.1071662546010754	0	0	0	0	0	0	27.59343366956902	-27.59343366956902	4.047634379403186	71.84717140121694	85.95236584909939	0	0	27.59343366956902	-27.59343366956902	4.047634379403186	71.84717140121694	85.9523658489216	0	0
15.99999999999975	-0.8303482376850664	-0.4251330911248768	-88.94167133159461	0	0.9399999999999999	0	-5.063626888631573	-5.128816609328904	-15.09331988801225	26.80381080834751	0.4678147506873069	0	0	0	-3.591205681600667	-1.085087137992311	-3.188549424700863	-6.093755855640898	-0.1063561034936179	0	0	0	0	0	0	27.59741749657658	-27.59741749657658	4.048064492342738	71.85322465744787	85.95193573618256	0	0	27.59741749657658	-27.59741749657658	4.048064492342738	71.85322465744787	85.95193573600486	0	0
16.01999999999975	-0.7402872151472647	-0.5691478481998915	-88.95805625806148	0	0.9399999999999999	0	-6.141378872047971	-5.254968972083219	-14.6196875018879	27.62873047188647	0.4822123148805056	0	0	0	-3.297072811068181	-1.150521333997987	-3.307285330105371	-6.082292374096149	-0.1061560279969204	0	0	0	0	0	0	27.60494169096568	-27.60494169096568	4.048879427231133	71.86469571045663	85.9511208013373	0	0	27.60494169096568	-27.60494169096568	4.048879427231133	71.86469571045663	85.95112080115979	0	0
16.03999999999975	-0.6596300813250948	-0.6866891340252836	-88.96013230438062	0	0.9399999999999999	0	-7.159716673156918	-5.332635176931046	-13.95648797485344	27.78973683228093	0.4850224059860415	0	0	0	-2.92998747660743	-1.234638610044098	-3.414170546774155	-6.023404107478376	-0.1051282338536481	0	0	0	0	0	0	27.60835333838681	-27.60835333838681	4.049248158866258	71.86988519018817	85.95075206972167	0	0	27.60835333838681	-27.60835333838681	4.049248158866258	71.86988519018817	85.95075206954424	0	0
16.05999999999975	-0.6228754650771035	-0.7151023608103052	-88.95090722053325	0	0.9399999999999999	0	-7.906223876927492	-5.292031017958115	-13.11514954661619	27.69479329434462	0.4833653286455606	0	0	0	-2.457600551035001	-1.347931236047325	-3.53937663376881	-5.974172037888819	-0.1042689721417393	0	0	0	0	0	0	27.61228849888115	-27.61228849888115	4.049673802194709	71.87587582200628	85.95032642641576	0	0	27.61228849888115	-27.61228849888115	4.049673802194709	71.87587582200628	85.95032642623841	0	0
16.07999999999975	-0.4840257224680907	-0.7615702159222898	-88.76327262091937	0	0.9399999999999999	0	-8.656103109219865	-5.098447325530472	-12.18179510530281	26.7048167777088	0.4660869789128413	0	0	0	-1.999710331142444	-1.368600490847897	-3.477634325564018	-5.992194981213327	-0.1045835318436523	0	0	0	0	0	0	27.61610670436901	-27.61610670436901	4.050087568344408	71.88169996459601	85.94991266028801	0	0	27.61610670436901	-27.61610670436901	4.050087568344408	71.88169996459601	85.94991266011073	0	0
16.09999999999975	-0.3504979692991802	-0.7600670508870978	-88.52490679687696	0	0.9399999999999999	0	-9.286327809075408	-4.750342225728022	-11.40616084665087	25.1909568932536	0.4396651395152371	0	0	0	-1.447841187402079	-1.391344874600495	-3.256857014265448	-5.977898164900266	-0.1043340053264366	0	0	0	0	0	0	27.62009591358324	-27.62009591358324	4.0505196093815	71.8877810581982	85.94948061927374	0	0	27.62009591358324	-27.62009591358324	4.0505196093815	71.8877810581982	85.94948061909649	0	0
16.11999999999975	-0.1641853531262568	-0.7368712073864006	-88.24388078254751	0	0.9399999999999999	0	-9.924891397227748	-4.668752496709195	-11.59755705488396	23.08496992571638	0.4029087329276217	0	0	0	-0.8437635402133282	-1.351930030967539	-3.02275646067407	-5.900358800538905	-0.1029806881184273	0	0	0	0	0	0	27.62772583701488	-27.62772583701488	4.051341912292516	71.8993514765518	85.94865831640612	0	0	27.62772583701488	-27.62772583701488	4.051341912292516	71.8993514765518	85.94865831622913	0	0
16.13999999999974	0.05892399238412308	-0.6351580179477444	-87.98229286289644	0	0.9399999999999999	0	-10.56316132382526	-4.295455248264067	-11.34651327744587	20.40386111900485	0.3561145566462892	0	0	0	-0.1548863269202852	-1.261486684164348	-2.913373967045576	-5.870962145685502	-0.102467619702163	0	0	0	0	0	0	27.63599152607094	-27.63599152607094	4.052234574023269	71.91191304490168	85.94776565472255	0	0	27.63599152607094	-27.63599152607094	4.052234574023269	71.91191304490168	85.94776565454573	0	0
16.15999999999974	0.3705889758426748	-0.3965497608882871	-87.76805330506227	0	0.9399999999999999	0	-10.5914499056691	-4.118218507505223	-12.74405133282724	19.999480192024	0.3490567780382066	0	0	0	0.6723833143233691	-1.072364066411329	-3.048812616230238	-5.889775369592859	-0.1027959724022613	0	0	0	0	0	0	27.64012040162209	-27.64012040162209	4.052680101616084	71.91818208302165	85.94732012715332	0	0	27.64012040162209	-27.64012040162209	4.052680101616084	71.91818208302165	85.94732012697656	0	0
16.17999999999974	0.6631909265211601	-0.04262255248744045	-87.7135849987753	0	0.9399999999999999	0	-10.62916682124076	-4.762817024006522	-13.78085506512024	18.73916942468682	0.3270602055498367	0	0	0	1.012877676701508	-0.8057177499148029	-2.977951486958689	-6.584168742235507	-0.1149154230589034	0	0	0	0	0	0	27.64436787517892	-27.64436787517892	4.053139325716179	71.92464460023133	85.94686090307752	0	0	27.64436787517892	-27.64436787517892	4.053139325716179	71.92464460023133	85.94686090290081	0	0
16.19999999999974	0.7978157736502293	0.1655431292778245	-87.70184255209587	0	0.9399999999999999	0	-11.13254769384331	-3.692969992812402	-8.21515841564716	16.10613799201386	0.2811051377411901	0	0	0	1.917217133281087	-0.7936752503090259	-3.45606825279979	-6.527296414001068	-0.1139228136779375	0	0	0	0	0	0	27.67587075688312	-27.67587075688312	4.056202031281329	71.9674684490906	85.94379819767191	0	0	27.67587075688312	-27.67587075688312	4.056202031281329	71.9674684490906	85.94379819749577	0	0
